<svg width="151" height="154" viewBox="0 0 151 154" fill="none" xmlns="http://www.w3.org/2000/svg">
<rect width="151" height="154" fill="#F2F2F2"/>
<g clip-path="url(#clip0_0_1)">
<rect width="1366" height="768" transform="translate(-509 -561)" fill="white"/>
<rect x="-509" y="-561" width="1366" height="768" fill="url(#paint0_radial_0_1)"/>
<path opacity="0.2" d="M19.2595 -117.941L174.5 -230.729L329.74 -117.941L270.444 64.5554H78.5561L19.2595 -117.941Z" stroke="black" stroke-width="15"/>
<g filter="url(#filter0_d_0_1)">
<ellipse cx="75.5" cy="74" rx="72.5" ry="74" fill="#5F37A8"/>
</g>
<ellipse cx="75.5" cy="70.7192" rx="72.5" ry="70.7192" fill="#834EE3"/>
<ellipse cx="75.5" cy="70.7192" rx="72.5" ry="70.7192" fill="url(#paint1_linear_0_1)"/>
<ellipse cx="75.5" cy="72.1774" rx="55.6566" ry="55.4089" fill="#BABFD4"/>
<ellipse cx="75.5" cy="75.0937" rx="55.6566" ry="52.4926" fill="url(#paint2_linear_0_1)"/>
<path fill-rule="evenodd" clip-rule="evenodd" d="M102.198 45.8772C99.8072 44.6633 96.7125 45.0965 93.4837 47.0963C90.9304 48.6779 88.5865 51.0801 87.3669 53.3654C85.0378 57.7293 85.9511 61.5772 86.5389 63.2018C85.7352 65.7547 84.6257 67.8761 83.2147 69.5636C82.0773 68.1383 81.4428 66.3427 81.4428 64.4645V64.373L84.4321 61.2875C84.7515 60.9577 85.5784 59.6582 84.432 58.4748C83.6796 57.6983 82.4595 57.6983 81.7071 58.4748L81.4426 58.7479V58.1268C81.4426 57.0286 80.5799 56.1381 79.5158 56.1381C78.4518 56.1381 77.5891 57.0286 77.5891 58.1268V58.7479L77.3246 58.4748C76.5722 57.6983 75.3521 57.6983 74.5997 58.4748C73.8472 59.2514 73.8472 60.5107 74.5997 61.2874L77.5892 64.3727V64.4643C77.5892 67.306 78.559 70.0225 80.2976 72.1661C77.1754 74.1988 73.1306 74.8873 68.1858 74.2176C66.4019 73.9758 64.6007 73.9457 62.8351 74.1223C60.6208 71.8876 57.586 70.6196 54.3894 70.6196H54.2994L51.2672 67.637C50.5041 66.8864 49.2665 66.8864 48.5033 67.637C47.7402 68.3877 47.7402 69.605 48.5033 70.3558L48.7716 70.6197H48.1614C47.0821 70.6197 46.2071 71.4804 46.2071 72.5421C46.2071 73.6037 47.0821 74.4641 48.1614 74.4641H48.7717L48.5033 74.7282C47.7402 75.4788 47.7402 76.6961 48.5033 77.4469C48.8849 77.8223 49.3851 78.01 49.8852 78.01C50.3854 78.01 50.8856 77.8223 51.2673 77.4469L54.2995 74.4642H54.3895C55.5728 74.4642 56.7225 74.7254 57.7647 75.2108C57.9054 75.1726 58.0465 75.1355 58.1879 75.0997C58.1447 75.1139 58.1015 75.1282 58.0584 75.1427C54.7516 76.2535 51.7689 78.1823 49.4332 80.7202C45.4055 85.0962 43.9305 90.5538 45.1675 96.5033C46.0785 100.884 48.1552 103.988 48.2431 104.118C48.6156 104.669 49.2307 104.985 49.8734 104.985C50.0304 104.985 50.1892 104.966 50.3462 104.928C51.1469 104.729 51.7396 104.051 51.8321 103.228C51.8424 103.138 52.9108 94.1377 58.4286 89.0454C59.1314 88.3969 61.7882 86.3301 66.4729 86.9646C68.1264 87.1886 69.7259 87.3221 71.2704 87.3655C72.1174 89.0118 72.3786 90.9148 71.9821 92.7587L71.9629 92.848L68.3451 95.2005C67.4345 95.7928 67.1705 97.0198 67.7558 97.9412C68.341 98.863 69.5535 99.1297 70.4643 98.5377L70.7843 98.3295L70.6541 98.9346C70.4241 100.005 71.0949 101.061 72.1525 101.294C72.293 101.325 72.433 101.34 72.5711 101.34C73.473 101.34 74.2847 100.706 74.4845 99.7782L74.6146 99.1731L74.8204 99.4971C75.1948 100.087 75.8262 100.409 76.471 100.409C76.8337 100.409 77.2008 100.307 77.5288 100.094C78.4392 99.5013 78.7032 98.2743 78.1179 97.3529L75.7932 93.6917L75.8124 93.6023C76.2721 91.4649 76.142 89.2738 75.4707 87.2498C80.8029 86.7849 85.3647 85.087 89.0962 82.1686C89.5372 81.8237 89.9657 81.4626 90.3814 81.0857C92.5073 82.917 95.2411 83.9422 98.1051 83.9422H98.1948L101.216 86.9247C101.596 87.3003 102.095 87.4879 102.593 87.4879C103.091 87.4879 103.59 87.3002 103.97 86.9247C104.73 86.1741 104.73 84.9568 103.97 84.2061L103.703 83.942H104.311C105.386 83.9422 106.258 83.0814 106.258 82.0198C106.258 80.9582 105.386 80.0975 104.31 80.0975H103.702L103.97 79.8336C104.73 79.083 104.73 77.8657 103.97 77.1149C103.209 76.3641 101.976 76.3643 101.216 77.1149L98.1947 80.0974H98.105C96.2283 80.0974 94.435 79.4394 93.0261 78.2608C95.1765 75.5606 96.8611 72.2953 98.0601 68.4962C101.156 67.3957 103.35 65.586 104.588 63.1096C106.781 58.7223 107.556 48.5975 102.198 45.8772Z" fill="#3B4262"/>
</g>
<defs>
<filter id="filter0_d_0_1" x="0" y="0" width="151" height="154" filterUnits="userSpaceOnUse" color-interpolation-filters="sRGB">
<feFlood flood-opacity="0" result="BackgroundImageFix"/>
<feColorMatrix in="SourceAlpha" type="matrix" values="0 0 0 0 0 0 0 0 0 0 0 0 0 0 0 0 0 0 127 0" result="hardAlpha"/>
<feOffset dy="3"/>
<feGaussianBlur stdDeviation="1.5"/>
<feColorMatrix type="matrix" values="0 0 0 0 0 0 0 0 0 0 0 0 0 0 0 0 0 0 0.196706 0"/>
<feBlend mode="normal" in2="BackgroundImageFix" result="effect1_dropShadow_0_1"/>
<feBlend mode="normal" in="SourceGraphic" in2="effect1_dropShadow_0_1" result="shape"/>
</filter>
<radialGradient id="paint0_radial_0_1" cx="0" cy="0" r="1" gradientUnits="userSpaceOnUse" gradientTransform="translate(174 -561) rotate(90) scale(1031.76 1835.13)">
<stop stop-color="#1F3757"/>
<stop offset="1" stop-color="#131537"/>
</radialGradient>
<linearGradient id="paint1_linear_0_1" x1="3" y1="0" x2="3" y2="141.438" gradientUnits="userSpaceOnUse">
<stop stop-color="white" stop-opacity="0.0966455"/>
<stop offset="1" stop-color="white" stop-opacity="0.01"/>
</linearGradient>
<linearGradient id="paint2_linear_0_1" x1="130.234" y1="127.586" x2="130.234" y2="24.3412" gradientUnits="userSpaceOnUse">
<stop stop-color="#F3F3F3"/>
<stop offset="1" stop-color="#DADADA"/>
</linearGradient>
<clipPath id="clip0_0_1">
<rect width="1366" height="768" fill="white" transform="translate(-509 -561)"/>
</clipPath>
</defs>
</svg>
